<svg id="Layer_1" data-name="Layer 1" xmlns="http://www.w3.org/2000/svg" width="460.2" height="85.1" viewBox="0 0 460.2 85.1"><title>DiDi Food logo - Brandlogos.net</title><rect x="267.8" y="31.4" width="7.8" height="40.8" style="fill:#5a5a5a"/><path d="M363.8,413.65v-58h19.9c18.1,0,27.8,12.8,27.8,29,0,16.5-10.1,29-27.9,29Zm18.4-6.9c14,0,21.5-7.3,21.5-22.1,0-15.1-8-22.1-21.2-22.1H371.6v44.2Z" transform="translate(-153.9 -341.45)" style="fill:#5a5a5a"/><path d="M420.6,359.25a5,5,0,1,1,5,5A5,5,0,0,1,420.6,359.25Z" transform="translate(-153.9 -341.45)" style="fill:#5a5a5a"/><rect x="188.6" y="31.4" width="7.8" height="40.8" style="fill:#5a5a5a"/><path d="M284.3,413.65v-58h19.9c18.1,0,27.8,12.8,27.8,29,0,16.5-10.1,29-27.9,29Zm18.4-6.9c14,0,21.5-7.3,21.5-22.1,0-15.1-8-22.1-21.2-22.1H292.1v44.2Z" transform="translate(-153.9 -341.45)" style="fill:#5a5a5a"/><path d="M341.4,359.25a5,5,0,1,1,5,5A5.08,5.08,0,0,1,341.4,359.25Z" transform="translate(-153.9 -341.45)" style="fill:#5a5a5a"/><path d="M506.4,371.65c-13.1,0-20.3,7.5-20.3,21s7.2,21,20.3,21,20.3-7.5,20.3-21S519.4,371.65,506.4,371.65Zm0,37.2c-10.4,0-15.5-5.3-15.5-16.3s5.1-16.3,15.5-16.3,15.5,5.3,15.5,16.3S516.8,408.85,506.4,408.85Z" transform="translate(-153.9 -341.45)" style="fill:#5a5a5a"/><path d="M551,371.65c-13.1,0-20.3,7.5-20.3,21s7.2,21,20.3,21,20.3-7.5,20.3-21S564,371.65,551,371.65Zm0,37.2c-10.4,0-15.5-5.3-15.5-16.3s5.1-16.3,15.5-16.3,15.5,5.3,15.5,16.3S561.4,408.85,551,408.85Z" transform="translate(-153.9 -341.45)" style="fill:#5a5a5a"/><polygon points="302.8 17.5 333.2 17.5 333.2 13 297.9 13 297.9 72.2 302.8 72.2 302.8 45.9 328 45.9 328 41.3 302.8 41.3 302.8 17.5" style="fill:#5a5a5a"/><path d="M609.5,355.25v22.3c-3.3-3.9-8.3-6-14.9-6-12.5,0-19.4,7.5-19.4,21.1s6.9,21.1,19.4,21.1c6.5,0,11.5-2.1,14.8-5.9l.4,5.2h4.3v-58.8Zm-14.8,53.6c-9.8,0-14.6-5.3-14.6-16.3s4.8-16.3,14.6-16.3,14.6,5.3,14.6,16.3S604.5,408.85,594.7,408.85Z" transform="translate(-153.9 -341.45)" style="fill:#5a5a5a"/><path d="M206.7,407.75a33.16,33.16,0,0,0,32.4-32.6v-15.2h19.7v16.9c-.4,27.4-24.2,49.1-52.1,49.7h0c-28.4-.2-52.4-22-52.8-49.7v-30.3a4.75,4.75,0,0,1,5-5.1H239v18.5H176.2a2.42,2.42,0,0,0-2.6,2.6v12.3a33.29,33.29,0,0,0,33.1,32.9Z" transform="translate(-153.9 -341.45)" style="fill:#ff7d41"/></svg>